<?xml version="1.0" encoding="UTF-8"?>
<svg width="668px" height="473px" viewBox="0 0 668 473" version="1.1" xmlns="http://www.w3.org/2000/svg" xmlns:xlink="http://www.w3.org/1999/xlink">
    <!-- Generator: Sketch 56.2 (81672) - https://sketch.com -->
    <title>k8s-archi-diagram 2</title>
    <desc>Created with Sketch.</desc>
    <g id="Page-1" stroke="none" stroke-width="1" fill="none" fill-rule="evenodd">
        <g id="k8s-archi-diagram">
            <rect id="Rectangle" stroke="#01A0C6" x="37.1" y="162.4" width="285.2" height="266.6"></rect>
            <g id="Group" transform="translate(52.000000, 198.000000)">
                <g fill="#FFFFFF" fill-rule="nonzero" id="Path" stroke="#01A0C6">
                    <path d="M90.3,35.9 L5.6,35.9 C3,35.9 0.9,33.8 0.9,31.2 L0.9,5.2 C0.9,2.6 3,0.5 5.6,0.5 L90.3,0.5 C92.9,0.5 95,2.6 95,5.2 L95,31.2 C95,33.8 92.9,35.9 90.3,35.9 Z"></path>
                    <path d="M100.4,47.3 L15.7,47.3 C13.1,47.3 11,45.2 11,42.6 L11,16.6 C11,14 13.1,11.9 15.7,11.9 L100.4,11.9 C103,11.9 105.1,14 105.1,16.6 L105.1,42.6 C105.1,45.2 103,47.3 100.4,47.3 Z"></path>
                    <path d="M112.8,57.3 L28,57.3 C25.4,57.3 23.3,55.2 23.3,52.6 L23.3,26.6 C23.3,24 25.4,21.9 28,21.9 L112.7,21.9 C115.3,21.9 117.4,24 117.4,26.6 L117.4,52.6 C117.4,55.2 115.3,57.3 112.8,57.3 Z"></path>
                </g>
                <g transform="translate(43.986800, 25.242100)" fill="#000000" font-family="Helvetica" font-size="12" font-weight="normal">
                    <text id="Controller">
                        <tspan x="0" y="11">Controller</tspan>
                    </text>
                    <text id="Manager">
                        <tspan x="4.2" y="25.4">Manager</tspan>
                    </text>
                </g>
            </g>
            <g id="Group" transform="translate(190.000000, 201.000000)">
                <g fill="#FFFFFF" fill-rule="nonzero" id="Path" stroke="#01A0C6">
                    <path d="M89.6,35.7 L4.9,35.7 C2.3,35.7 0.2,33.6 0.2,31 L0.2,5 C0.2,2.4 2.3,0.3 4.9,0.3 L89.6,0.3 C92.2,0.3 94.3,2.4 94.3,5 L94.3,31 C94.3,33.6 92.2,35.7 89.6,35.7 Z"></path>
                    <path d="M99.8,47.1 L15,47.1 C12.4,47.1 10.3,45 10.3,42.4 L10.3,16.4 C10.3,13.8 12.4,11.7 15,11.7 L99.7,11.7 C102.3,11.7 104.4,13.8 104.4,16.4 L104.4,42.4 C104.4,45 102.3,47.1 99.8,47.1 Z"></path>
                    <path d="M112.1,57.1 L27.4,57.1 C24.8,57.1 22.7,55 22.7,52.4 L22.7,26.4 C22.7,23.8 24.8,21.7 27.4,21.7 L112.1,21.7 C114.7,21.7 116.8,23.8 116.8,26.4 L116.8,52.4 C116.8,55 114.7,57.1 112.1,57.1 Z"></path>
                </g>
                <g transform="translate(43.310500, 23.432900)" fill="#000000" font-family="Helvetica" font-size="12" font-weight="normal">
                    <text id="Controller">
                        <tspan x="0" y="11">Controller</tspan>
                    </text>
                    <text id="Manager">
                        <tspan x="4.2" y="25.4">Manager</tspan>
                    </text>
                </g>
            </g>
            <g id="Group" transform="translate(66.000000, 318.000000)" fill="#FFFFFF" fill-rule="nonzero">
                <ellipse id="Oval" stroke="#01A0C6" cx="34.4" cy="65.7" rx="34.3" ry="10"></ellipse>
                <rect id="Rectangle" stroke="#01A0C6" x="0.1" y="10.9" width="68.6" height="54.8"></rect>
                <path d="M0.9,65.7 L67.9,65.7" id="Path" stroke="#FFFFFF" stroke-width="2"></path>
                <ellipse id="Oval" stroke="#01A0C6" cx="34.4" cy="21" rx="34.3" ry="10"></ellipse>
                <ellipse id="Oval" stroke="#01A0C6" cx="34.4" cy="15.9" rx="34.3" ry="10"></ellipse>
                <ellipse id="Oval" stroke="#01A0C6" cx="34.4" cy="10.9" rx="34.3" ry="10"></ellipse>
            </g>
            <text id="etcd" fill="#000000" font-family="Helvetica" font-size="12" font-weight="normal">
                <tspan x="90.8689" y="373.6827">etcd</tspan>
            </text>
            <path d="M298.7,323.9 L196.1,323.9 C190.8,323.9 186.4,319.5 186.4,314.2 L186.4,296.4 C186.4,291.1 190.8,286.7 196.1,286.7 L298.7,286.7 C304,286.7 308.4,291.1 308.4,296.4 L308.4,314.2 C308.4,319.5 304,323.9 298.7,323.9 Z" id="Path" stroke="#01A0C6" fill="#FFFFFF" fill-rule="nonzero"></path>
            <text id="API-Server" fill="#000000" font-family="Helvetica" font-size="12" font-weight="normal">
                <tspan x="222.549" y="308.9108">API Server</tspan>
            </text>
            <g id="Group" transform="translate(189.000000, 345.000000)">
                <g fill="#FFFFFF" fill-rule="nonzero" id="Path" stroke="#01A0C6">
                    <path d="M89.5,35.6 L4.8,35.6 C2.2,35.6 0.1,33.5 0.1,30.9 L0.1,4.9 C0.1,2.3 2.2,0.2 4.8,0.2 L89.5,0.2 C92.1,0.2 94.2,2.3 94.2,4.9 L94.2,30.9 C94.2,33.5 92.1,35.6 89.5,35.6 Z"></path>
                    <path d="M99.7,47 L15,47 C12.4,47 10.3,44.9 10.3,42.3 L10.3,16.3 C10.3,13.7 12.4,11.6 15,11.6 L99.7,11.6 C102.3,11.6 104.4,13.7 104.4,16.3 L104.4,42.3 C104.3,44.9 102.2,47 99.7,47 Z"></path>
                    <path d="M112,57 L27.3,57 C24.7,57 22.6,54.9 22.6,52.3 L22.6,26.3 C22.6,23.7 24.7,21.6 27.3,21.6 L112,21.6 C114.6,21.6 116.7,23.7 116.7,26.3 L116.7,52.3 C116.7,54.9 114.6,57 112,57 Z"></path>
                </g>
                <text id="Scheduler" fill="#000000" font-family="Helvetica" font-size="12" font-weight="normal">
                    <tspan x="42.4041" y="42.5417">Scheduler</tspan>
                </text>
            </g>
            <text id="Master-node" fill="#000000" font-family="Helvetica" font-size="15" font-weight="normal">
                <tspan x="37.1327" y="156.2151">Master node</tspan>
            </text>
            <g id="Group" transform="translate(296.000000, 44.000000)">
                <g transform="translate(79.000000, 0.000000)">
                    <g id="XMLID_81_" transform="translate(148.000000, 62.000000)">
                        <g id="Group">
                            <path d="M4.7,38.4 C4.7,16.5 4.7,0.6 4.7,0.6 C4.7,0.6 4.7,0.7 4.7,0.7" id="Path" stroke="#85C964"></path>
                            <polygon id="Path" fill="#85C964" fill-rule="nonzero" points="4.7 45.5 8.8 35.5 4.7 37.9 0.6 35.5"></polygon>
                        </g>
                    </g>
                    <g>
                        <rect id="Rectangle" stroke="#80C41C" x="0.8" y="22.5" width="235.9" height="176.5"></rect>
                        <rect id="Rectangle" stroke="#80C41C" x="10.3" y="80.8" width="215.4" height="104.8"></rect>
                        <rect id="Rectangle" stroke="#80C41C" x="21.3" y="108.9" width="84.7" height="66.4"></rect>
                        <rect id="Rectangle" stroke="#80C41C" x="128.1" y="108.9" width="84.7" height="66.4"></rect>
                        <g transform="translate(39.000000, 123.000000)" fill="#FFFFFF" fill-rule="nonzero" id="Path" stroke="#80C41C">
                            <path d="M44.3,28.3 L5,28.3 C2.4,28.3 0.3,26.2 0.3,23.6 L0.3,5.6 C0.3,3 2.4,0.9 5,0.9 L44.3,0.9 C46.9,0.9 49,3 49,5.6 L49,23.6 C49,26.2 46.9,28.3 44.3,28.3 Z"></path>
                            <path d="M49.6,37.1 L10.3,37.1 C7.7,37.1 5.6,35 5.6,32.4 L5.6,14.4 C5.6,11.8 7.7,9.7 10.3,9.7 L49.6,9.7 C52.2,9.7 54.3,11.8 54.3,14.4 L54.3,32.4 C54.2,35 52.1,37.1 49.6,37.1 Z"></path>
                            <path d="M55.9,44.9 L16.6,44.9 C14,44.9 11.9,42.8 11.9,40.2 L11.9,22.2 C11.9,19.6 14,17.5 16.6,17.5 L55.9,17.5 C58.5,17.5 60.6,19.6 60.6,22.2 L60.6,40.2 C60.6,42.8 58.5,44.9 55.9,44.9 Z"></path>
                        </g>
                        <g transform="translate(146.000000, 123.000000)" fill="#FFFFFF" fill-rule="nonzero" id="Path" stroke="#80C41C">
                            <path d="M44.8,28.3 L5.5,28.3 C2.9,28.3 0.8,26.2 0.8,23.6 L0.8,5.6 C0.8,3 2.9,0.9 5.5,0.9 L44.8,0.9 C47.4,0.9 49.5,3 49.5,5.6 L49.5,23.6 C49.4,26.2 47.3,28.3 44.8,28.3 Z"></path>
                            <path d="M50,37.1 L10.7,37.1 C8.1,37.1 6,35 6,32.4 L6,14.4 C6,11.8 8.1,9.7 10.7,9.7 L50,9.7 C52.6,9.7 54.7,11.8 54.7,14.4 L54.7,32.4 C54.7,35 52.6,37.1 50,37.1 Z"></path>
                            <path d="M56.4,44.9 L17.1,44.9 C14.5,44.9 12.4,42.8 12.4,40.2 L12.4,22.2 C12.4,19.6 14.5,17.5 17.1,17.5 L56.4,17.5 C59,17.5 61.1,19.6 61.1,22.2 L61.1,40.2 C61,42.8 58.9,44.9 56.4,44.9 Z"></path>
                        </g>
                        <rect id="Rectangle" stroke="#80C41C" fill="#FFFFFF" fill-rule="nonzero" x="21.3" y="36.1" width="71.9" height="25.5"></rect>
                        <rect id="Rectangle" stroke="#80C41C" fill="#FFFFFF" fill-rule="nonzero" x="118.8" y="36.1" width="94" height="25.5"></rect>
                        <text id="kubelet" fill="#000000" font-family="Helvetica" font-size="12" font-weight="normal">
                            <tspan x="39.3737" y="52.85">kubelet</tspan>
                        </text>
                        <text id="Proxy" fill="#000000" font-family="Helvetica" font-size="12" font-weight="normal">
                            <tspan x="147.4372" y="53.0789">Proxy</tspan>
                        </text>
                        <path d="M44.6,61.6 L44.6,110.7" id="Path"></path>
                        <text id="Worker-node" fill="#000000" font-family="Helvetica" font-size="15" font-weight="normal">
                            <tspan x="0.8131" y="15.896">Worker node</tspan>
                        </text>
                        <text id="Deployment" fill="#000000" font-family="Helvetica" font-size="12" font-weight="normal">
                            <tspan x="156.4567" y="94.7864">Deployment</tspan>
                        </text>
                        <text id="Pod" fill="#000000" font-family="Helvetica" font-size="12" font-weight="normal">
                            <tspan x="82.5824" y="120.3193">Pod</tspan>
                        </text>
                        <text id="Pod" fill="#000000" font-family="Helvetica" font-size="12" font-weight="normal">
                            <tspan x="189.2664" y="119.9298">Pod</tspan>
                        </text>
                    </g>
                    <g id="XMLID_1_" transform="translate(46.000000, 62.000000)">
                        <g id="Group">
                            <path d="M5,38.2 C5,16.3 5,0.4 5,0.4 C5,0.4 5,0.5 5,0.5" id="Path" stroke="#85C964"></path>
                            <polygon id="Path" fill="#85C964" fill-rule="nonzero" points="5 45.2 9 35.3 5 37.6 0.9 35.3"></polygon>
                        </g>
                    </g>
                </g>
                <g transform="translate(147.000000, 62.000000)" id="Path">
                    <path d="M0.9,0.6 L72.7,41.7" stroke="#80C41C"></path>
                    <polygon fill="#80C41C" fill-rule="nonzero" points="78.8 45.2 68.2 43.8 72.2 41.4 72.2 36.7"></polygon>
                </g>
                <g transform="translate(147.000000, 61.000000)" id="Path">
                    <path d="M78.8,0.6 L7,42.9" stroke="#80C41C"></path>
                    <polygon fill="#80C41C" fill-rule="nonzero" points="0.9 46.5 7.4 37.9 7.5 42.6 11.6 44.9"></polygon>
                </g>
                <g transform="translate(0.000000, 46.000000)" id="Path">
                    <path d="M2.4,190.9 L96.8,3.4" stroke="#FEA621" stroke-width="0.5"></path>
                    <polygon fill="#FEA621" fill-rule="nonzero" points="0.8 194 4.8 190.5 2.5 190.6 1.2 188.7"></polygon>
                    <polygon fill="#FEA621" fill-rule="nonzero" points="98.4 0.2 98 5.6 96.7 3.6 94.3 3.8"></polygon>
                </g>
            </g>
            <g id="Group" transform="translate(240.000000, 256.000000)">
                <path d="M4.5,0.7 L4.5,23.1" id="Path" stroke="#01A0C6"></path>
                <polygon id="Path" fill="#01A0C6" fill-rule="nonzero" points="4.5 30.2 0.4 20.2 4.5 22.6 8.5 20.2"></polygon>
            </g>
            <g id="Group" transform="translate(169.000000, 250.000000)">
                <path d="M0.4,0.6 L55.1,31.3" id="Path" stroke="#01A0C6"></path>
                <polygon id="Path" fill="#01A0C6" fill-rule="nonzero" points="61.3 34.7 50.6 33.4 54.7 31 54.6 26.3"></polygon>
            </g>
            <g id="Group" transform="translate(134.000000, 314.000000)">
                <path d="M52.4,0.2 L6.2,37.9" id="Path" stroke="#01A0C6"></path>
                <polygon id="Path" fill="#01A0C6" fill-rule="nonzero" points="0.7 42.3 5.9 32.9 6.6 37.5 11 39.2"></polygon>
            </g>
            <g id="Group" transform="translate(242.000000, 327.000000)">
                <path d="M4.3,16 L4.3,8" id="Path" stroke="#01A0C6"></path>
                <polygon id="Path" fill="#01A0C6" fill-rule="nonzero" points="4.3 0.9 8.4 10.9 4.3 8.5 0.2 10.9"></polygon>
            </g>
            <g id="Group" transform="translate(307.000000, 256.000000)">
                <g transform="translate(69.000000, 0.000000)">
                    <g id="XMLID_5_" transform="translate(145.000000, 62.000000)">
                        <g id="Group">
                            <path d="M3.8,38 C3.8,16.1 3.8,0.2 3.8,0.2 C3.8,0.2 3.8,0.3 3.8,0.3" id="Path" stroke="#85C964"></path>
                            <polygon id="Path" fill="#85C964" fill-rule="nonzero" points="4.8 45 8.8 35.1 4.8 37.4 0.7 35.1"></polygon>
                        </g>
                    </g>
                    <g>
                        <rect id="Rectangle" stroke="#80C41C" x="0.9" y="22" width="235.9" height="176.5"></rect>
                        <rect id="Rectangle" stroke="#80C41C" x="10.4" y="80.3" width="215.4" height="104.8"></rect>
                        <rect id="Rectangle" stroke="#80C41C" x="21.4" y="108.5" width="84.7" height="66.4"></rect>
                        <rect id="Rectangle" stroke="#80C41C" x="128.2" y="108.5" width="84.7" height="66.4"></rect>
                        <g transform="translate(39.000000, 123.000000)" fill="#FFFFFF" fill-rule="nonzero" id="Path" stroke="#80C41C">
                            <path d="M44.4,27.9 L5.1,27.9 C2.5,27.9 0.4,25.8 0.4,23.2 L0.4,5.2 C0.4,2.6 2.5,0.5 5.1,0.5 L44.4,0.5 C47,0.5 49.1,2.6 49.1,5.2 L49.1,23.2 C49.1,25.8 47,27.9 44.4,27.9 Z"></path>
                            <path d="M49.6,36.7 L10.3,36.7 C7.7,36.7 5.6,34.6 5.6,32 L5.6,14 C5.6,11.4 7.7,9.3 10.3,9.3 L49.6,9.3 C52.2,9.3 54.3,11.4 54.3,14 L54.3,32 C54.3,34.6 52.2,36.7 49.6,36.7 Z"></path>
                            <path d="M56,44.4 L16.7,44.4 C14.1,44.4 12,42.3 12,39.7 L12,21.7 C12,19.1 14.1,17 16.7,17 L56,17 C58.6,17 60.7,19.1 60.7,21.7 L60.7,39.7 C60.7,42.3 58.6,44.4 56,44.4 Z"></path>
                        </g>
                        <g transform="translate(146.000000, 123.000000)" fill="#FFFFFF" fill-rule="nonzero" id="Path" stroke="#80C41C">
                            <path d="M44.9,27.9 L5.6,27.9 C3,27.9 0.9,25.8 0.9,23.2 L0.9,5.2 C0.9,2.6 3,0.5 5.6,0.5 L44.9,0.5 C47.5,0.5 49.6,2.6 49.6,5.2 L49.6,23.2 C49.5,25.8 47.4,27.9 44.9,27.9 Z"></path>
                            <path d="M50.1,36.7 L10.8,36.7 C8.2,36.7 6.1,34.6 6.1,32 L6.1,14 C6.1,11.4 8.2,9.3 10.8,9.3 L50.1,9.3 C52.7,9.3 54.8,11.4 54.8,14 L54.8,32 C54.8,34.6 52.7,36.7 50.1,36.7 Z"></path>
                            <path d="M56.5,44.4 L17.2,44.4 C14.6,44.4 12.5,42.3 12.5,39.7 L12.5,21.7 C12.5,19.1 14.6,17 17.2,17 L56.5,17 C59.1,17 61.2,19.1 61.2,21.7 L61.2,39.7 C61.1,42.3 59,44.4 56.5,44.4 Z"></path>
                        </g>
                        <rect id="Rectangle" stroke="#80C41C" fill="#FFFFFF" fill-rule="nonzero" x="21.4" y="35.7" width="71.9" height="25.5"></rect>
                        <rect id="Rectangle" stroke="#80C41C" fill="#FFFFFF" fill-rule="nonzero" x="118.9" y="35.7" width="94" height="25.5"></rect>
                        <text id="kubelet" fill="#000000" font-family="Helvetica" font-size="12" font-weight="normal">
                            <tspan x="39.4582" y="52.3967">kubelet</tspan>
                        </text>
                        <text id="Proxy" fill="#000000" font-family="Helvetica" font-size="12" font-weight="normal">
                            <tspan x="147.4373" y="51.7654">Proxy</tspan>
                        </text>
                        <path d="M44.7,61.1 L44.7,110.3" id="Path"></path>
                        <text id="Worker-node" fill="#000000" font-family="Helvetica" font-size="15" font-weight="normal">
                            <tspan x="0.8976" y="15.4427">Worker node</tspan>
                        </text>
                        <text id="Deployment" fill="#000000" font-family="Helvetica" font-size="12" font-weight="normal">
                            <tspan x="157.5412" y="94.333">Deployment</tspan>
                        </text>
                        <text id="Pod" fill="#000000" font-family="Helvetica" font-size="12" font-weight="normal">
                            <tspan x="82.6669" y="119.866">Pod</tspan>
                        </text>
                        <text id="Pod" fill="#000000" font-family="Helvetica" font-size="12" font-weight="normal">
                            <tspan x="189.3509" y="119.4764">Pod</tspan>
                        </text>
                    </g>
                    <g id="XMLID_3_" transform="translate(47.000000, 61.000000)">
                        <g id="Group">
                            <path d="M4.1,38.7 C4.1,16.8 4.1,0.9 4.1,0.9 C4.1,0.9 4.1,1 4.1,1" id="Path" stroke="#85C964"></path>
                            <polygon id="Path" fill="#85C964" fill-rule="nonzero" points="4.1 45.8 8.1 35.8 4.1 38.2 0 35.8"></polygon>
                        </g>
                    </g>
                </g>
                <g transform="translate(138.000000, 62.000000)" id="Path">
                    <path d="M0,0.1 L71.8,41.3" stroke="#80C41C"></path>
                    <polygon fill="#80C41C" fill-rule="nonzero" points="77.9 44.8 67.2 43.3 71.3 41 71.3 36.3"></polygon>
                </g>
                <g transform="translate(138.000000, 61.000000)" id="Path">
                    <path d="M77.9,0.1 L6.1,42.4" stroke="#80C41C"></path>
                    <polygon fill="#80C41C" fill-rule="nonzero" points="0 46 6.5 37.5 6.5 42.2 10.6 44.5"></polygon>
                </g>
                <g transform="translate(0.000000, 48.000000)" id="Path">
                    <path d="M3.6,11.4 L86.9,2.6" stroke="#FEA621" stroke-width="0.5"></path>
                    <polygon fill="#FEA621" fill-rule="nonzero" points="0.1 11.7 5.3 13.2 3.9 11.3 4.8 9.2"></polygon>
                    <polygon fill="#FEA621" fill-rule="nonzero" points="90.4 2.2 85.6 4.7 86.6 2.6 85.2 0.7"></polygon>
                </g>
            </g>
            <text id="container" fill="#000000" font-family="Helvetica" font-size="12" font-weight="normal">
                <tspan x="533.9009" y="206.1404">container</tspan>
            </text>
            <text id="container" fill="#000000" font-family="Helvetica" font-size="12" font-weight="normal">
                <tspan x="428" y="206">container</tspan>
            </text>
            <text id="container" fill="#000000" font-family="Helvetica" font-size="12" font-weight="normal">
                <tspan x="428" y="419">container</tspan>
            </text>
            <text id="container" fill="#000000" font-family="Helvetica" font-size="12" font-weight="normal">
                <tspan x="539" y="419">container</tspan>
            </text>
            <rect id="Rectangle" fill="#FFFFFF" fill-rule="nonzero" x="258" y="78.9" width="25.1" height="8.7"></rect>
            <text id="Cloud" fill="#000000" font-family="Helvetica" font-size="12" font-weight="normal">
                <tspan x="257.9705" y="87.5203">Cloud</tspan>
            </text>
            <g id="Group" transform="translate(266.000000, 101.000000)">
                <path d="M4.5,97.6 L4.5,7.9" id="Path" stroke="#01A0C6"></path>
                <polygon id="Path" fill="#01A0C6" fill-rule="nonzero" points="4.5 0.9 8.6 10.8 4.5 8.5 0.5 10.8"></polygon>
            </g>
            <path d="M564.8,25.9 C564,21.7 568,17.8 573.6,17.3 C575.9,17.1 578.2,17.4 580.2,18.3 C582.3,15.3 587.2,14.2 591.2,15.8 C591.9,16.1 592.5,16.4 593.1,16.8 C594.7,14.4 598.7,13.4 602,14.6 C602.9,14.9 603.7,15.4 604.3,16 C606.9,13.7 611.6,13.4 614.7,15.4 C616,16.2 616.9,17.4 617.2,18.6 C621.5,19.5 624.1,22.8 622.9,26 C622.8,26.3 622.7,26.5 622.5,26.8 C626,30.2 625.1,35 620.6,37.6 C619.2,38.4 617.5,38.9 615.8,39.1 C615.8,42.7 611.8,45.6 606.9,45.6 C605.3,45.6 603.7,45.2 602.3,44.6 C600.7,48.7 594.9,51 589.5,49.7 C587.2,49.2 585.3,48.1 583.9,46.6 C578.3,49.1 571.1,47.8 567.8,43.6 C567.8,43.5 567.7,43.5 567.7,43.4 C564.1,43.7 560.8,41.8 560.3,39.1 C560.1,37.7 560.7,36.2 562,35.2 C558.9,33.8 557.8,30.8 559.6,28.4 C560.7,27 562.5,26.1 564.6,26 L564.8,25.9 Z" id="Path" stroke="#80C41C"></path>
            <text id="Internet" fill="#000000" font-family="Helvetica" font-size="12" font-weight="normal">
                <tspan x="571.5167" y="33.0444">Internet</tspan>
            </text>
            <g id="Group" transform="translate(565.000000, 49.000000)">
                <path d="M24.5,0.7 L4.9,23.9" id="Path" stroke="#80C41C"></path>
                <polygon id="Path" fill="#80C41C" fill-rule="nonzero" points="0.4 29.3 3.7 19 5.3 23.5 9.9 24.3"></polygon>
            </g>
            <path d="M243.7,77 C242.9,72.8 246.9,68.9 252.5,68.4 C254.8,68.2 257.1,68.5 259.1,69.4 C261.2,66.4 266.1,65.3 270.1,66.9 C270.8,67.2 271.4,67.5 272,67.9 C273.6,65.5 277.6,64.5 280.9,65.7 C281.8,66 282.6,66.5 283.2,67.1 C285.8,64.8 290.5,64.5 293.6,66.5 C294.9,67.3 295.8,68.5 296.1,69.7 C300.4,70.6 303,73.9 301.8,77.1 C301.7,77.4 301.6,77.6 301.4,77.9 C304.9,81.3 304,86.1 299.5,88.7 C298.1,89.5 296.4,90 294.7,90.2 C294.7,93.8 290.7,96.7 285.8,96.7 C284.2,96.7 282.6,96.3 281.2,95.7 C279.6,99.8 273.8,102.1 268.4,100.8 C266.1,100.3 264.2,99.2 262.8,97.7 C257.2,100.2 250,98.9 246.7,94.7 C246.7,94.6 246.6,94.6 246.6,94.5 C243,94.8 239.7,92.9 239.2,90.2 C239,88.8 239.6,87.3 240.9,86.3 C237.8,84.9 236.7,81.9 238.5,79.5 C239.6,78.1 241.4,77.2 243.5,77.1 L243.7,77 Z" id="Path" stroke="#01A0C6"></path>
            <rect id="Rectangle" stroke="#000000" stroke-width="0.25" x="0.5" y="0.5" width="666.5" height="471.8"></rect>
        </g>
    </g>
</svg>